<svg xmlns="http://www.w3.org/2000/svg" viewBox="0 0 512 512">
  <rect width="512" height="512" rx="96" fill="#00543C"/>
  <g transform="translate(100, 86) scale(3.5)">
    <path d="M65.8353 30.0588V38.3142H52.6207V36.5056H43.8109V41.9315H53.7292V47.1823H43.8109V53.7459L47.6032 55.2628V62.4389L24.908 53.3375V46.1905L28.7877 47.7366V36.4765H24.9371V30.0296H65.8353V30.0588Z" fill="white"/>
    <path d="M63.8808 8.35535H49.616V6.92596H40.3396V11.5934H56.8505C59.4759 11.5934 61.6346 12.0018 63.3265 12.8477C65.0185 13.6937 65.8644 14.7147 65.8644 15.8815V22.6784C65.8644 23.787 64.9309 24.7204 63.064 25.5081C61.197 26.2957 59.0092 26.6749 56.5004 26.6749H24.8204V19.3237H40.3687V21.0157H49.5869V16.2608H33.776C30.9172 16.2608 28.5544 15.794 26.6874 14.8314C24.8204 13.8687 23.887 12.7894 23.887 11.535V5.17568C23.887 3.86298 24.9955 3.16287 27.1833 2.43358C29.4003 1.7043 31.9382 1.35425 34.797 1.35425H63.8516V8.35535H63.8808Z" fill="white"/>
    <path d="M75.1701 0.799988C75.1701 0.799988 71.9905 0.799988 71.9905 3.65877C71.9905 12.9061 71.9905 41.9023 71.9905 46.1321C71.9905 50.8579 71.057 56.2837 65.2227 59.0842C55.8004 63.6057 47.895 67.573 44.8903 67.5439C41.8857 67.573 33.9803 63.6057 24.558 59.0842C18.7237 56.2837 17.7902 50.8871 17.7902 46.1321C17.7902 41.9023 17.7902 12.9061 17.7902 3.65877C17.8194 0.799988 14.6397 0.799988 14.6397 0.799988H0.199951V13.577H2.76702C2.76702 13.577 5.36327 13.2853 5.30492 15.9107C5.24658 17.9235 5.30492 45.2862 5.30492 45.2862C5.10073 53.8917 6.90934 65.6186 23.3619 71.7737C36.1681 76.5578 41.5356 80 44.8903 80C48.2159 80 53.5834 76.5578 66.4187 71.7737C82.8713 65.6186 84.68 53.8917 84.4758 45.2862C84.4758 45.2862 84.5341 17.9235 84.4758 15.9107C84.4174 13.3145 87.0137 13.577 87.0137 13.577H89.5807V0.799988H75.1701Z" fill="#FDBB30"/>
  </g>
</svg>
